<svg xmlns="http://www.w3.org/2000/svg" viewBox="0 0 37.73 49.2"><defs><style>.cls-1{fill:#fff;}</style></defs><title>IBlogo</title><path class="cls-1" d="M30 23.3c3.4-2.4 5.46-5.59 5.46-9.85a12.82 12.82 0 0 0-5.76-10.59c-3.39-2.2-7.26-2.46-11.19-2.46h-11.51v15.06a11.91 11.91 0 0 1 3.83 6 5.15 5.15 0 0 0-9.27-.09 12.25 12.25 0 0 1 3.8-5.86v-15.11h-4.93v49.2h4.93v-17.81a12.23 12.23 0 0 1-3.81-5.9 5.16 5.16 0 0 0 9.29-.06 11.88 11.88 0 0 1-3.83 6v17.77h11.57c4.93-.06 9.19.07 13.52-2.66a13.41 13.41 0 0 0 6.06-11.25 12.83 12.83 0 0 0-8.16-12.39zm-21.59.35a2.26 2.26 0 1 1-3.89-1.55.68.68 0 0 0 0 .14.77.77 0 1 0 .94-.74 2.26 2.26 0 0 1 3 2.15zm3.49-18.8h5.73c2.93-.13 6.46-.07 9 1.46a8.4 8.4 0 0 1 3.93 6.79 8 8 0 0 1-4 6.86c-2.8 1.54-6.19 1.46-9.32 1.46h-5.31zm16.47 38.82c-3 1.54-7.06 1.54-10.39 1.47h-6.06v-19.25h5.2c3.26 0 6.86-.06 9.92 1a9 9 0 0 1 6.12 8.86 9.24 9.24 0 0 1-4.79 7.92z" transform="translate(-.43 -.4)"/></svg>