<?xml version="1.0" encoding="utf-8"?>
<!-- Generator: Adobe Illustrator 22.0.1, SVG Export Plug-In . SVG Version: 6.00 Build 0)  -->
<svg version="1.1" id="Layer_1" xmlns="http://www.w3.org/2000/svg" xmlns:xlink="http://www.w3.org/1999/xlink" x="0px" y="0px"
	 viewBox="0 0 30 30" style="enable-background:new 0 0 30 30;" xml:space="preserve">
<style type="text/css">
	.st0{fill:#FFFFFF;}
</style>
<title>info</title>
<g>
	<path class="st0" d="M15,0C6.7,0,0,6.7,0,15s6.7,15,15,15s15-6.7,15-15S23.3,0,15,0z M15,7.1L15,7.1c0.7,0,1.2,0.5,1.2,1.3
		c0,0.6-0.5,1.2-1.2,1.2c-0.7,0-1.2-0.6-1.2-1.2C13.8,7.7,14.3,7.1,15,7.1z M12.5,23v-0.7c1.6-0.1,1.8-0.3,1.8-1.9v-5.1
		c0-1.5-0.1-1.6-1.6-1.8v-0.6c1.3-0.2,2.4-0.5,3.4-1v8.6c0,1.7,0.2,1.8,1.8,1.9l0,0.7H12.5z"/>
</g>
</svg>
