<svg xmlns="http://www.w3.org/2000/svg" viewBox="0 0 150 50"><defs><style>.cls-1{fill:#fff;}</style></defs><title>logoname</title><path class="cls-1" d="M4.27 18.7h2.16v12.6h-2.16zM14.06 26c-1.85-.64-3.94-1.65-3.94-4a3.83 3.83 0 0 1 4.12-3.57 5.43 5.43 0 0 1 4.11 2l-1.5 1.57a3.62 3.62 0 0 0-2.61-1.42 1.74 1.74 0 0 0-1.93 1.51c0 1.1 1 1.44 2.72 2.09 1.93.72 3.53 1.58 3.53 3.87s-2 3.51-4.39 3.51a5.51 5.51 0 0 1-4.61-2.58l1.62-1.36a3.85 3.85 0 0 0 3 1.89c1.08 0 2.2-.44 2.2-1.46s-.82-1.48-2.32-2.05zM25.17 18.7h2.19l4.9 12.6h-2.18l-1.15-3h-5.33l-1.15 3h-2.18zm-.8 7.63h3.79l-1.9-4.91zM34.42 18.7h4.08c2.06 0 4 .95 4 3.6a2.58 2.58 0 0 1-1.31 2.32 3 3 0 0 1 2 3c0 2.21-1.84 3.72-4.22 3.72h-4.55zm4 5.15c1.21 0 1.89-.45 1.89-1.55s-.82-1.55-1.89-1.55h-1.84v3.1zm2.58 3.73c0-1.19-.9-1.68-2.09-1.68h-2.3v3.35h2.3c1.16 0 2.09-.49 2.09-1.67zM47.92 23.81h5v2.05h-5v3.39h5.58v2.05h-7.74v-12.6h7.63v2.05h-5.47zM56.31 18.7h2.16v10.55h5.36v2.05h-7.52zM66 18.7h2.17v10.55h5.36v2.05h-7.53zM77.91 23.81h5v2.05h-5v3.39h5.58v2.05h-7.74v-12.6h7.63v2.05h-5.47zM92.3 18.7h4.09c2.06 0 4 .95 4 3.6a2.58 2.58 0 0 1-1.32 2.32 3 3 0 0 1 2 3c0 2.21-1.84 3.72-4.22 3.72h-4.55zm4 5.15c1.21 0 1.89-.45 1.89-1.55s-.83-1.55-1.89-1.55h-1.83v3.1zm2.54 3.73c0-1.19-.9-1.68-2.09-1.68h-2.3v3.35h2.3c1.25 0 2.11-.49 2.11-1.67zM107.32 18.7h2.19l4.9 12.6h-2.18l-1.15-3h-5.33l-1.15 3h-2.18zm-.79 7.63h3.78l-1.89-4.91zM116.57 18.7h2.16v10.55h5.36v2.05h-7.52zM126.29 18.7h2.16v10.55h5.36v2.05h-7.52zM143.57 18.7h2.16v8a4.86 4.86 0 0 1-9.72 0v-8h2.16v7.76c0 1.8.9 3 2.7 3s2.7-1.21 2.7-3z"/></svg>