<svg xmlns="http://www.w3.org/2000/svg" viewBox="0 0 52 30"><defs><style>.cls-1{fill:#fff;}</style></defs><title>slides</title><path class="cls-1" d="M.24 5.13l.1-.13a1.08 1.08 0 0 1 1.23-.6 1 1 0 0 1 .8 1.12v19c0 .93-.7 1.51-1.45 1.15-.27-.1-.46-.42-.68-.67zM51.68 25l-.1.17a1.08 1.08 0 0 1-1.22.58 1.05 1.05 0 0 1-.81-1.12v-19c0-.7.26-1.09.8-1.23s.92.07 1.26.65l.07.08zM13.1 15v-13.64c0-.89.37-1.27 1.24-1.27h23.26a1.08 1.08 0 0 1 1.22 1.24v27.53c0 .83-.41 1.22-1.29 1.22h-23.11s-1.27-.39-1.27-1.29v-13.77zm23.56-12.75h-21.39v25.66h21.39zM45.25 15.07v11.799999999999999a1.07 1.07 0 0 1-1.1 1.07 1 1 0 0 1-1-1.07v-23.330000000000002c0-.87.38-1.35 1.06-1.35s1.07.5 1.07 1.35v11.5zM8.8 15.07v11.55a1.93 1.93 0 0 1-.09.68 1.06 1.06 0 0 1-2-.43v-23.35a1.34 1.34 0 0 1 0-.2 1.08 1.08 0 0 1 1.06-1.1 1.06 1.06 0 0 1 1.03 1.09v11.76z"/></svg>